<svg width="65" height="121" viewBox="0 0 65 121" fill="none" xmlns="http://www.w3.org/2000/svg">
<g clip-path="url(#clip0_1_216)">
<path style="mix-blend-mode:multiply" d="M61.64 21.36C61.27 12.29 52.84 4.52 42.7 3.89L29.89 3.09C31.42 8.32 32.26 13.81 32.26 19.48C32.26 40.08 21.38 58.51 5.14999 69.28V97.99C5.14999 108.57 14.44 117.26 25.78 117.26L30.21 120.7C41.16 120.7 65.2 108.85 64.78 98.61L61.64 21.35V21.36Z" fill="url(#paint0_linear_1_216)"/>
<path d="M49.15 7.84C48.57 4.16 35.34 0 30.21 0C25.08 0 11.85 4.17 11.27 7.84C10.7 11.52 0.939998 22.31 2.38 33.27C3.81 44.23 5.54 58.91 4.1 67.64C2.67 76.37 0.939998 98.42 5.82 108.62C10.41 118.23 23.73 120.7 30.21 120.7C37.14 120.7 50.01 118.22 54.6 108.62C59.48 98.41 57.76 76.36 56.32 67.64C54.89 58.91 56.61 44.23 58.04 33.27C59.47 22.31 49.72 11.52 49.15 7.84Z" fill="#F29106"/>
<g style="mix-blend-mode:multiply">
<path d="M29.55 116.8C20.67 116.8 12.74 114.67 7.48 111.34C13.06 118.71 24.39 120.71 30.21 120.71C36.95 120.71 49.3 118.37 54.2 109.4C49.21 113.83 40.04 116.8 29.55 116.8Z" fill="#CCCCCC"/>
</g>
<path d="M30.21 119.15C24.11 119.15 11.46 116.78 7.23 107.8C2.63 98.05 4.17 76.24 5.64 67.21C7.03 58.63 5.64 45.18 3.93 31.92C3.01 24.78 7.09 17.66 10.07 12.47C11.51 9.96 12.55 8.14 12.81 6.71L12.84 6.53L12.93 6.37C14.43 3.75 25.4 0 30.21 0C35.02 0 45.99 3.75 47.5 6.37L47.59 6.53L47.62 6.71C47.87 8.14 48.92 9.96 50.36 12.47C53.34 17.67 57.42 24.79 56.5 31.93C54.79 45.19 53.39 58.64 54.79 67.22C56.26 76.25 57.8 98.06 53.2 107.81C48.98 116.77 36.77 119.16 30.22 119.16L30.21 119.15Z" fill="url(#paint1_radial_1_216)"/>
<path style="mix-blend-mode:multiply" d="M29.44 8.73C35.62 8.56 41.8 8.24 47.97 7.89C47.81 7.47 47.69 7.07 47.62 6.71L47.59 6.53L47.5 6.37C45.99 3.75 35.02 0 30.21 0C25.4 0 14.43 3.75 12.92 6.37L12.83 6.53L12.8 6.71C12.71 7.23 12.51 7.8 12.23 8.43C17.95 8.47 23.71 8.88 29.45 8.72L29.44 8.73Z" fill="url(#paint2_linear_1_216)"/>
<path d="M52.71 63.02C52.71 57.61 42.64 53.22 30.21 53.22C17.78 53.22 7.71 57.61 7.71 63.02C7.71 63.02 7.29 95.15 11.91 101.31C16.53 107.47 27.56 106.92 30.2 106.92C32.84 106.92 43.87 107.46 48.49 101.31C53.11 95.15 52.69 63.02 52.69 63.02H52.71Z" fill="url(#paint3_linear_1_216)"/>
<path style="mix-blend-mode:screen" d="M52.71 63.02C52.71 57.61 42.64 53.22 30.21 53.22C28.38 53.22 26.6 53.32 24.89 53.5C31.28 59.04 35.7 66.81 36.83 75.5L45.49 75.09L52.71 64.05C52.71 63.39 52.71 63.03 52.71 63.03V63.02Z" fill="url(#paint4_linear_1_216)"/>
<path d="M31.92 101.74C31.52 101.74 31.17 101.74 30.87 101.74C30.61 101.74 30.39 101.74 30.21 101.74C30.03 101.74 29.8 101.74 29.55 101.74C29.25 101.74 28.9 101.74 28.5 101.74C20 101.74 17.06 100.15 16.07 99.21C16 99.13 14.09 97.03 13.26 85.78C12.84 80.12 12.9 74.9 12.91 74.25C13.67 73.23 19.67 70.85 30.22 70.85C40.77 70.85 46.76 73.24 47.53 74.25C47.53 74.9 47.6 80.15 47.18 85.81C46.35 97.03 44.44 99.13 44.36 99.21C43.37 100.15 40.43 101.73 31.94 101.73L31.92 101.74Z" fill="url(#paint5_linear_1_216)"/>
<g style="mix-blend-mode:screen">
<path d="M52.9241 62.331L46.482 74.0009L47.3925 74.5035L53.8346 62.8336L52.9241 62.331Z" fill="#292929"/>
</g>
<g style="mix-blend-mode:screen">
<path d="M7.49461 62.3307L6.58386 62.8328L13.0199 74.5062L13.9307 74.004L7.49461 62.3307Z" fill="#292929"/>
</g>
<path style="mix-blend-mode:multiply" d="M34.26 1.15C34.26 1.15 34.34 1.3 34.48 1.58C34.59 1.85 34.75 2.24 34.96 2.74C35.17 3.24 35.36 3.93 35.62 4.68C35.74 5.06 35.9 5.45 36 5.9C36.11 6.34 36.23 6.8 36.35 7.28C36.47 7.76 36.6 8.26 36.73 8.78C36.8 9.04 36.86 9.3 36.93 9.57C36.99 9.84 37.04 10.12 37.09 10.4C37.31 11.52 37.53 12.71 37.77 13.93C38.03 15.15 38.18 16.44 38.36 17.74C38.54 19.04 38.72 20.37 38.9 21.69C39 22.35 39.06 23.02 39.12 23.68C39.18 24.34 39.24 25.01 39.29 25.66C39.41 26.97 39.52 28.26 39.63 29.52C39.74 30.77 39.86 31.98 39.89 33.13C39.94 34.28 39.99 35.37 40.03 36.37C40.21 40.39 40.32 43.07 40.32 43.07C40.32 43.07 40.33 40.39 40.35 36.36C40.35 35.35 40.35 34.26 40.37 33.11C40.4 31.96 40.34 30.74 40.29 29.48C40.24 28.22 40.19 26.92 40.14 25.6C40.11 24.94 40.09 24.27 40.06 23.6C40.04 22.93 40.01 22.26 39.94 21.59C39.82 20.25 39.71 18.91 39.59 17.59C39.47 16.27 39.39 14.97 39.18 13.71C39 12.46 38.83 11.24 38.66 10.09C38.62 9.8 38.58 9.52 38.53 9.24C38.47 8.96 38.42 8.69 38.36 8.42C38.25 7.88 38.14 7.36 38.04 6.86C37.94 6.36 37.84 5.88 37.75 5.43C37.66 4.97 37.52 4.55 37.42 4.14C37.19 3.33 37.03 2.64 36.82 2.04C36.68 1.65 36.56 1.32 36.46 1.04C35.67 0.830003 34.89 0.640003 34.15 0.480003C34.12 0.690003 34.15 0.900003 34.25 1.11L34.27 1.14L34.26 1.15Z" fill="url(#paint6_linear_1_216)"/>
<path style="mix-blend-mode:multiply" d="M26.16 1.15C26.16 1.15 26.08 1.3 25.94 1.58C25.83 1.85 25.67 2.24 25.46 2.74C25.25 3.24 25.06 3.93 24.8 4.68C24.68 5.06 24.52 5.45 24.42 5.9C24.31 6.34 24.19 6.8 24.07 7.28C23.95 7.76 23.82 8.26 23.69 8.78C23.62 9.04 23.56 9.3 23.49 9.57C23.43 9.84 23.38 10.12 23.33 10.4C23.12 11.52 22.89 12.71 22.65 13.93C22.38 15.15 22.24 16.44 22.06 17.74C21.88 19.04 21.7 20.37 21.52 21.69C21.42 22.35 21.36 23.02 21.3 23.68C21.24 24.34 21.18 25.01 21.13 25.66C21.01 26.97 20.9 28.26 20.79 29.52C20.68 30.77 20.56 31.98 20.53 33.13C20.48 34.28 20.43 35.37 20.39 36.37C20.21 40.39 20.1 43.07 20.1 43.07C20.1 43.07 20.09 40.39 20.07 36.36C20.07 35.35 20.07 34.26 20.05 33.11C20.02 31.96 20.08 30.74 20.13 29.48C20.18 28.22 20.23 26.92 20.28 25.6C20.31 24.94 20.33 24.27 20.36 23.6C20.38 22.93 20.41 22.26 20.48 21.59C20.6 20.25 20.71 18.91 20.83 17.59C20.95 16.27 21.03 14.97 21.24 13.71C21.42 12.46 21.59 11.24 21.76 10.09C21.8 9.8 21.84 9.52 21.89 9.24C21.95 8.96 22 8.69 22.06 8.42C22.17 7.88 22.28 7.36 22.38 6.86C22.48 6.36 22.58 5.88 22.67 5.43C22.76 4.97 22.9 4.55 23 4.14C23.23 3.33 23.39 2.64 23.6 2.04C23.74 1.65 23.86 1.32 23.96 1.04C24.75 0.830003 25.53 0.640003 26.27 0.480003C26.3 0.690003 26.27 0.900003 26.17 1.11L26.15 1.14L26.16 1.15Z" fill="url(#paint7_linear_1_216)"/>
<path d="M16.9 116.7C14.72 116.64 14.01 115.3 12.09 114.94C11.75 114.88 11.46 114.89 11.21 114.94C12.94 116.44 15.74 117.7 18.63 118.69C18.61 117.9 18.34 116.74 16.9 116.7Z" fill="#630611"/>
<path d="M43.52 116.7C45.7 116.64 46.41 115.3 48.33 114.94C48.67 114.88 48.96 114.89 49.21 114.94C47.48 116.44 44.68 117.7 41.79 118.69C41.81 117.9 42.08 116.74 43.52 116.7Z" fill="#630611"/>
<g style="mix-blend-mode:screen">
<path d="M44.5895 99.2752L43.5949 99.5789L44.9908 104.151L45.9855 103.847L44.5895 99.2752Z" fill="#292929"/>
</g>
<g style="mix-blend-mode:screen">
<path d="M15.8336 99.275L14.4361 103.846L15.4307 104.15L16.8282 99.579L15.8336 99.275Z" fill="#292929"/>
</g>
<g style="mix-blend-mode:multiply">
<path d="M41.85 45.44C41.85 45.44 42.02 48.85 44.1 50.17C46.18 51.49 51.07 53.63 50.7 50.59C50.33 47.55 41.85 45.44 41.85 45.44Z" fill="#FFE6B0"/>
</g>
<g style="mix-blend-mode:multiply">
<path d="M18.57 45.44C18.57 45.44 18.4 48.85 16.32 50.17C14.24 51.49 9.34999 53.63 9.71999 50.59C10.09 47.55 18.57 45.44 18.57 45.44Z" fill="#FFE6B0"/>
</g>
<path d="M43.03 42.89C42.21 42.68 41.51 43.01 41.51 43.53V44.49C41.51 45.46 42.64 46.5 43.94 46.94C46.51 47.82 48.78 49.06 50.69 50.6C50.89 49.75 51.13 47.39 48.44 45.43C46.45 43.98 44.37 43.25 43.02 42.89H43.03Z" fill="url(#paint8_linear_1_216)"/>
<path d="M50.28 49.74C48.48 48.44 46.44 47.39 44.19 46.62C42.99 46.21 42.05 45.27 42.05 44.48V43.52C42.05 43.3 42.24 43.16 42.54 43.16C42.63 43.16 42.74 43.17 42.84 43.2C44.17 43.55 46.15 44.26 48.06 45.65C49.98 47.05 50.32 48.66 50.28 49.73V49.74Z" fill="url(#paint9_linear_1_216)"/>
<path d="M46.71 48.08C46.35 47.9 45.98 47.74 45.6 47.58V43.8C45.96 43.96 46.33 44.14 46.71 44.35V48.08ZM43.43 46.73C43.6 46.81 43.76 46.88 43.94 46.94C44.14 47.01 44.34 47.08 44.54 47.16V43.37C44.14 43.22 43.77 43.1 43.43 43.01V46.73ZM47.77 48.64C48.15 48.85 48.52 49.07 48.88 49.3V45.77C48.74 45.65 48.6 45.54 48.44 45.43C48.22 45.27 47.99 45.12 47.77 44.97V48.64Z" fill="url(#paint10_linear_1_216)"/>
<path d="M17.39 42.89C18.21 42.68 18.91 43.01 18.91 43.53V44.49C18.91 45.46 17.78 46.5 16.48 46.94C13.91 47.82 11.64 49.06 9.72999 50.6C9.52999 49.75 9.28999 47.39 11.98 45.43C13.97 43.98 16.04 43.25 17.4 42.89H17.39Z" fill="url(#paint11_linear_1_216)"/>
<path d="M10.14 49.74C11.94 48.44 13.99 47.39 16.23 46.62C17.43 46.21 18.37 45.27 18.37 44.48V43.52C18.37 43.3 18.18 43.16 17.88 43.16C17.79 43.16 17.69 43.17 17.58 43.2C16.25 43.55 14.27 44.26 12.36 45.65C10.44 47.05 10.1 48.66 10.14 49.73V49.74Z" fill="url(#paint12_linear_1_216)"/>
<path d="M13.71 44.34C14.09 44.14 14.46 43.95 14.82 43.79V47.57C14.44 47.73 14.07 47.9 13.71 48.07V44.34ZM16.99 43C16.65 43.1 16.28 43.22 15.88 43.36V47.15C16.08 47.08 16.28 47 16.48 46.93C16.65 46.87 16.82 46.8 16.99 46.72V43ZM12.65 44.97C12.43 45.11 12.2 45.26 11.98 45.43C11.82 45.54 11.68 45.66 11.54 45.77V49.3C11.9 49.07 12.27 48.85 12.65 48.64V44.97Z" fill="url(#paint13_linear_1_216)"/>
<g style="mix-blend-mode:multiply">
<path d="M50.36 12.47C49.4 10.8 48.63 9.44 48.14 8.3C48.18 10.9 48.57 14.74 50.16 18C52.86 23.54 55.46 32.97 54.84 46.15C54.83 46.42 54.82 46.67 54.81 46.9C55.23 42.07 55.84 36.98 56.49 31.92C57.41 24.78 53.33 17.66 50.35 12.46L50.36 12.47Z" fill="#EDD49D"/>
</g>
<g style="mix-blend-mode:screen">
<path d="M10.06 12.47C11.02 10.8 11.79 9.44 12.28 8.3C12.24 10.9 11.85 14.74 10.26 18C7.56 23.54 4.95 32.97 5.58 46.15C5.59 46.42 5.6 46.67 5.61 46.9C5.19 42.07 4.58 36.98 3.93 31.92C3.01 24.78 7.09 17.66 10.07 12.46L10.06 12.47Z" fill="#574621"/>
</g>
<g style="mix-blend-mode:multiply">
<path d="M51.86 60.4L51.35 60.32C54.34 41.76 43.1 4.59 42.98 4.22L43.48 4.07C43.59 4.44 54.87 41.72 51.86 60.4Z" fill="#DECEAF"/>
</g>
<g style="mix-blend-mode:multiply">
<path d="M8.56 60.4C5.56 41.72 16.83 4.44 16.95 4.06L17.45 4.21C17.34 4.58 6.09 41.75 9.08 60.31L8.57 60.39L8.56 60.4Z" fill="#DECEAF"/>
</g>
<g style="mix-blend-mode:multiply">
<path d="M54.23 60.09H51.6V60.61H54.23V60.09Z" fill="#DECEAF"/>
</g>
<g style="mix-blend-mode:multiply">
<path d="M8.82 60.09H6.19V60.61H8.82V60.09Z" fill="#DECEAF"/>
</g>
<g style="mix-blend-mode:multiply">
<path d="M6.29 105.32L6.09 104.84C10.13 103.17 10.96 100.06 10.96 100.03L11.46 100.16C11.43 100.3 10.58 103.55 6.28 105.32H6.29Z" fill="#DECEAF"/>
</g>
<g style="mix-blend-mode:multiply">
<path d="M54.13 105.32C49.83 103.55 48.98 100.29 48.95 100.16L49.45 100.03C49.45 100.03 50.28 103.17 54.32 104.84L54.12 105.32H54.13Z" fill="#DECEAF"/>
</g>
<path d="M41.25 3.29C41.25 3.29 47.36 4.57 48.63 7.01C49.9 9.45 48.81 10.23 48.81 10.23C48.81 10.23 43.11 8.13 41.25 3.29Z" fill="url(#paint14_linear_1_216)"/>
<path d="M48.38 9.59C48.43 9.21 48.77 8.16 48.25 7.17C47.58 5.88 44.66 4.56 42.75 3.99C43.34 7.04 47.04 8.95 48.38 9.59Z" fill="url(#paint15_linear_1_216)"/>
<path style="mix-blend-mode:screen" d="M46.2 7.44C46.19 7.57 46.47 7.71 46.84 7.76C47.21 7.81 47.51 7.74 47.53 7.61C47.55 7.48 47.26 7.34 46.9 7.29C46.53 7.24 46.22 7.31 46.2 7.44Z" fill="url(#paint16_linear_1_216)"/>
<path style="mix-blend-mode:screen" d="M46.03 7.93C46 8.14 46.46 8.37 47.06 8.45C47.65 8.53 48.16 8.42 48.19 8.21C48.22 8 47.76 7.77 47.16 7.69C46.57 7.61 46.06 7.72 46.03 7.93Z" fill="url(#paint17_linear_1_216)"/>
<path d="M19.17 3.29C19.17 3.29 13.06 4.57 11.79 7.01C10.52 9.45 11.61 10.23 11.61 10.23C11.61 10.23 17.31 8.13 19.17 3.29Z" fill="url(#paint18_linear_1_216)"/>
<path d="M12.04 9.59C11.99 9.21 11.65 8.16 12.17 7.17C12.84 5.88 15.76 4.56 17.68 3.99C17.09 7.04 13.39 8.95 12.05 9.59H12.04Z" fill="url(#paint19_linear_1_216)"/>
<path style="mix-blend-mode:screen" d="M14.22 7.44C14.24 7.57 13.95 7.71 13.58 7.76C13.21 7.81 12.9 7.74 12.89 7.61C12.87 7.48 13.16 7.34 13.52 7.29C13.89 7.24 14.2 7.31 14.22 7.44Z" fill="url(#paint20_linear_1_216)"/>
<path style="mix-blend-mode:screen" d="M14.39 7.93C14.42 8.14 13.96 8.37 13.36 8.45C12.76 8.53 12.26 8.42 12.23 8.21C12.2 8 12.66 7.77 13.26 7.69C13.86 7.61 14.36 7.72 14.39 7.93Z" fill="url(#paint21_linear_1_216)"/>
<path d="M52.46 62.39C52.46 62.39 54.17 62.73 54.2 64.19C54.24 65.65 52.49 68.62 52.46 66.74C52.42 64.86 52.3 62.95 52.46 62.39Z" fill="url(#paint22_linear_1_216)"/>
<path d="M58.66 65.59C58.63 64.67 54.2 63.48 54.08 63.8C53.12 63.79 53 64.5 53.09 65C55.18 64.78 57.1 65.36 58.53 66.4C58.66 66.2 58.8 65.92 58.66 65.59Z" fill="url(#paint23_linear_1_216)"/>
<path d="M52.99 65C53.04 65.34 53.16 65.61 53.16 65.61C55.12 65.33 56.97 65.79 58.41 66.7C58.41 66.7 58.53 66.6 58.64 66.43C57.15 65.36 55.15 64.77 52.99 65Z" fill="url(#paint24_linear_1_216)"/>
<path d="M7.95999 62.39C7.95999 62.39 6.24999 62.73 6.21999 64.19C6.17999 65.65 7.92999 68.62 7.95999 66.74C7.99999 64.86 8.11999 62.95 7.95999 62.39Z" fill="url(#paint25_linear_1_216)"/>
<path d="M1.76 65.59C1.79 64.67 6.22 63.48 6.34 63.8C7.3 63.79 7.42 64.5 7.33 65C5.24 64.78 3.32 65.36 1.89 66.4C1.76 66.2 1.62 65.92 1.76 65.59Z" fill="url(#paint26_linear_1_216)"/>
<path d="M7.43 65C7.38 65.34 7.26 65.61 7.26 65.61C5.3 65.33 3.45 65.79 2.01 66.7C2.01 66.7 1.89 66.6 1.78 66.43C3.27 65.36 5.27 64.77 7.43 65Z" fill="url(#paint27_linear_1_216)"/>
<g style="mix-blend-mode:multiply">
<path d="M36.93 109.27C35.6 109.5 34.42 109.64 33.33 109.73C32.24 109.82 31.22 109.85 30.21 109.85C29.2 109.85 28.19 109.81 27.09 109.73C26 109.64 24.82 109.5 23.49 109.27C23.53 109.02 23.56 108.89 23.6 108.63C24.91 108.86 26.07 108.99 27.14 109.08C28.22 109.17 29.21 109.2 30.21 109.2C31.21 109.2 32.2 109.16 33.28 109.08C34.36 108.99 35.51 108.86 36.82 108.63C36.86 108.89 36.89 109.01 36.93 109.27Z" fill="url(#paint28_linear_1_216)"/>
<path d="M37.2 110.8C35.81 111.04 34.59 111.18 33.45 111.28C32.31 111.37 31.26 111.41 30.21 111.41C29.16 111.41 28.11 111.37 26.97 111.28C25.83 111.19 24.61 111.05 23.22 110.8C23.26 110.54 23.29 110.42 23.33 110.16C24.69 110.4 25.9 110.54 27.02 110.63C28.14 110.72 29.17 110.76 30.21 110.76C31.25 110.76 32.28 110.72 33.4 110.63C34.52 110.54 35.72 110.4 37.09 110.16C37.13 110.42 37.16 110.54 37.2 110.8Z" fill="url(#paint29_linear_1_216)"/>
<path d="M37.47 112.33C36.03 112.58 34.76 112.73 33.58 112.82C32.4 112.91 31.31 112.95 30.21 112.95C29.11 112.95 28.03 112.91 26.84 112.82C25.66 112.73 24.39 112.58 22.95 112.33C22.99 112.07 23.02 111.95 23.06 111.69C24.48 111.94 25.73 112.08 26.89 112.18C28.05 112.27 29.13 112.31 30.2 112.31C31.27 112.31 32.35 112.27 33.51 112.18C34.67 112.09 35.92 111.94 37.34 111.69C37.38 111.95 37.41 112.07 37.45 112.33H37.47Z" fill="url(#paint30_linear_1_216)"/>
<path d="M37.73 113.86C36.24 114.12 34.92 114.27 33.7 114.37C32.48 114.47 31.34 114.51 30.21 114.51C29.08 114.51 27.95 114.47 26.72 114.37C25.5 114.27 24.18 114.12 22.69 113.86C22.73 113.6 22.76 113.48 22.8 113.22C24.27 113.48 25.57 113.63 26.77 113.72C27.98 113.82 29.09 113.86 30.21 113.86C31.33 113.86 32.44 113.82 33.65 113.72C34.86 113.62 36.15 113.47 37.62 113.22C37.66 113.48 37.69 113.6 37.73 113.86Z" fill="url(#paint31_linear_1_216)"/>
</g>
</g>
<defs>
<linearGradient id="paint0_linear_1_216" x1="28.28" y1="61.9" x2="66.06" y2="61.9" gradientUnits="userSpaceOnUse">
<stop stop-color="#242424"/>
<stop offset="1" stop-color="white"/>
</linearGradient>
<radialGradient id="paint1_radial_1_216" cx="0" cy="0" r="1" gradientUnits="userSpaceOnUse" gradientTransform="translate(30.21 59.3752) scale(59.51 60.1051)">
<stop offset="0.47" stop-color="#FFE43F"/>
<stop offset="0.61" stop-color="#FEE03C"/>
<stop offset="0.72" stop-color="#FCD635"/>
<stop offset="0.81" stop-color="#F9C628"/>
<stop offset="0.91" stop-color="#F5AE17"/>
<stop offset="1" stop-color="#F08F00"/>
</radialGradient>
<linearGradient id="paint2_linear_1_216" x1="30.1" y1="6.32" x2="30.1" y2="-1.63" gradientUnits="userSpaceOnUse">
<stop stop-color="white"/>
<stop offset="0.16" stop-color="#FDFCFB"/>
<stop offset="0.3" stop-color="#F9F6F1"/>
<stop offset="0.41" stop-color="#F2EBE1"/>
<stop offset="0.53" stop-color="#E7DBC9"/>
<stop offset="0.63" stop-color="#DAC7AA"/>
<stop offset="0.74" stop-color="#CAAE85"/>
<stop offset="0.84" stop-color="#B79158"/>
<stop offset="0.93" stop-color="#A17026"/>
<stop offset="1" stop-color="#915700"/>
</linearGradient>
<linearGradient id="paint3_linear_1_216" x1="7.7" y1="80.07" x2="52.72" y2="80.07" gradientUnits="userSpaceOnUse">
<stop stop-color="#363B39"/>
<stop offset="1" stop-color="#1B1C1C"/>
</linearGradient>
<linearGradient id="paint4_linear_1_216" x1="38.81" y1="53.79" x2="38.81" y2="69.37" gradientUnits="userSpaceOnUse">
<stop stop-color="#363B39"/>
<stop offset="0.48" stop-color="#1C1F1E"/>
<stop offset="1"/>
</linearGradient>
<linearGradient id="paint5_linear_1_216" x1="12.9" y1="86.29" x2="47.52" y2="86.29" gradientUnits="userSpaceOnUse">
<stop stop-color="#F0A000"/>
<stop offset="0.1" stop-color="#F3AE0D"/>
<stop offset="0.29" stop-color="#F8C623"/>
<stop offset="0.49" stop-color="#FCD632"/>
<stop offset="0.72" stop-color="#FEE03C"/>
<stop offset="1" stop-color="#FFE43F"/>
</linearGradient>
<linearGradient id="paint6_linear_1_216" x1="34.13" y1="21.79" x2="40.37" y2="21.79" gradientUnits="userSpaceOnUse">
<stop offset="0.47" stop-color="#DECF7D"/>
<stop offset="0.61" stop-color="#DDCF80"/>
<stop offset="0.71" stop-color="#DCCF8A"/>
<stop offset="0.81" stop-color="#DAD09A"/>
<stop offset="0.9" stop-color="#D7D2B2"/>
<stop offset="0.99" stop-color="#D4D3D0"/>
<stop offset="1" stop-color="#D4D4D4"/>
</linearGradient>
<linearGradient id="paint7_linear_1_216" x1="26.29" y1="3.39844e-06" x2="20.05" y2="3.39844e-06" gradientUnits="userSpaceOnUse">
<stop offset="0.47" stop-color="#DECF7D"/>
<stop offset="0.61" stop-color="#DDCF80"/>
<stop offset="0.71" stop-color="#DCCF8A"/>
<stop offset="0.81" stop-color="#DAD09A"/>
<stop offset="0.9" stop-color="#D7D2B2"/>
<stop offset="0.99" stop-color="#D4D3D0"/>
<stop offset="1" stop-color="#D4D4D4"/>
</linearGradient>
<linearGradient id="paint8_linear_1_216" x1="46.16" y1="44.13" x2="46.16" y2="49.13" gradientUnits="userSpaceOnUse">
<stop stop-color="#9C9C9C"/>
<stop offset="0.01" stop-color="#969696"/>
<stop offset="0.08" stop-color="#757575"/>
<stop offset="0.16" stop-color="#595959"/>
<stop offset="0.24" stop-color="#424242"/>
<stop offset="0.34" stop-color="#303131"/>
<stop offset="0.46" stop-color="#242525"/>
<stop offset="0.62" stop-color="#1D1E1E"/>
<stop offset="1" stop-color="#1B1C1C"/>
</linearGradient>
<linearGradient id="paint9_linear_1_216" x1="46.16" y1="44.28" x2="46.16" y2="48.51" gradientUnits="userSpaceOnUse">
<stop stop-color="#1B1C1C"/>
<stop offset="0.27" stop-color="#1D1E1E"/>
<stop offset="0.44" stop-color="#262727"/>
<stop offset="0.58" stop-color="#343535"/>
<stop offset="0.71" stop-color="#494A4A"/>
<stop offset="0.83" stop-color="#646464"/>
<stop offset="0.94" stop-color="#848585"/>
<stop offset="1" stop-color="#9C9C9C"/>
</linearGradient>
<linearGradient id="paint10_linear_1_216" x1="46.56" y1="43.92" x2="45.81" y2="48.11" gradientUnits="userSpaceOnUse">
<stop stop-color="#9C9C9C"/>
<stop offset="0.42" stop-color="#5F6060"/>
<stop offset="0.81" stop-color="#2E2F2F"/>
<stop offset="1" stop-color="#1B1C1C"/>
</linearGradient>
<linearGradient id="paint11_linear_1_216" x1="14.26" y1="44.13" x2="14.26" y2="49.13" gradientUnits="userSpaceOnUse">
<stop stop-color="#9C9C9C"/>
<stop offset="0.01" stop-color="#969696"/>
<stop offset="0.08" stop-color="#757575"/>
<stop offset="0.16" stop-color="#595959"/>
<stop offset="0.24" stop-color="#424242"/>
<stop offset="0.34" stop-color="#303131"/>
<stop offset="0.46" stop-color="#242525"/>
<stop offset="0.62" stop-color="#1D1E1E"/>
<stop offset="1" stop-color="#1B1C1C"/>
</linearGradient>
<linearGradient id="paint12_linear_1_216" x1="14.26" y1="44.28" x2="14.26" y2="48.51" gradientUnits="userSpaceOnUse">
<stop stop-color="#1B1C1C"/>
<stop offset="0.27" stop-color="#1D1E1E"/>
<stop offset="0.44" stop-color="#262727"/>
<stop offset="0.58" stop-color="#343535"/>
<stop offset="0.71" stop-color="#494A4A"/>
<stop offset="0.83" stop-color="#646464"/>
<stop offset="0.94" stop-color="#848585"/>
<stop offset="1" stop-color="#9C9C9C"/>
</linearGradient>
<linearGradient id="paint13_linear_1_216" x1="13.49" y1="44.23" x2="14.83" y2="47.58" gradientUnits="userSpaceOnUse">
<stop stop-color="#9C9C9C"/>
<stop offset="0.11" stop-color="#8A8A8A"/>
<stop offset="0.53" stop-color="#4E4F4F"/>
<stop offset="0.84" stop-color="#292A2A"/>
<stop offset="1" stop-color="#1B1C1C"/>
</linearGradient>
<linearGradient id="paint14_linear_1_216" x1="46.6679" y1="9.12781" x2="42.8886" y2="0.472502" gradientUnits="userSpaceOnUse">
<stop stop-color="#9C9C9C"/>
<stop offset="1" stop-color="#1B1C1C"/>
</linearGradient>
<linearGradient id="paint15_linear_1_216" x1="45.4228" y1="9.00996" x2="45.8737" y2="3.16013" gradientUnits="userSpaceOnUse">
<stop stop-color="white"/>
<stop offset="1"/>
</linearGradient>
<linearGradient id="paint16_linear_1_216" x1="46.9535" y1="7.75283" x2="46.6337" y2="7.01666" gradientUnits="userSpaceOnUse">
<stop stop-color="#9C9C9C"/>
<stop offset="1" stop-color="#1B1C1C"/>
</linearGradient>
<linearGradient id="paint17_linear_1_216" x1="47.2498" y1="8.43562" x2="46.7263" y2="7.24011" gradientUnits="userSpaceOnUse">
<stop stop-color="#9C9C9C"/>
<stop offset="1" stop-color="#1B1C1C"/>
</linearGradient>
<linearGradient id="paint18_linear_1_216" x1="13.7465" y1="9.1065" x2="17.5259" y2="0.4512" gradientUnits="userSpaceOnUse">
<stop stop-color="#9C9C9C"/>
<stop offset="1" stop-color="#1B1C1C"/>
</linearGradient>
<linearGradient id="paint19_linear_1_216" x1="14.9916" y1="8.98865" x2="14.5309" y2="3.14009" gradientUnits="userSpaceOnUse">
<stop stop-color="white"/>
<stop offset="1"/>
</linearGradient>
<linearGradient id="paint20_linear_1_216" x1="13.4523" y1="7.74271" x2="13.7721" y2="7.00654" gradientUnits="userSpaceOnUse">
<stop stop-color="#9C9C9C"/>
<stop offset="1" stop-color="#1B1C1C"/>
</linearGradient>
<linearGradient id="paint21_linear_1_216" x1="13.1547" y1="8.41558" x2="13.6795" y2="7.22999" gradientUnits="userSpaceOnUse">
<stop stop-color="#9C9C9C"/>
<stop offset="1" stop-color="#1B1C1C"/>
</linearGradient>
<linearGradient id="paint22_linear_1_216" x1="52.07" y1="62.99" x2="55.85" y2="70.32" gradientUnits="userSpaceOnUse">
<stop stop-color="#363B39"/>
<stop offset="1" stop-color="#1B1C1C"/>
</linearGradient>
<linearGradient id="paint23_linear_1_216" x1="53.02" y1="65.07" x2="58.72" y2="65.07" gradientUnits="userSpaceOnUse">
<stop stop-color="#F0A000"/>
<stop offset="0.1" stop-color="#F3AE0D"/>
<stop offset="0.29" stop-color="#F8C623"/>
<stop offset="0.49" stop-color="#FCD632"/>
<stop offset="0.72" stop-color="#FEE03C"/>
<stop offset="1" stop-color="#FFE43F"/>
</linearGradient>
<linearGradient id="paint24_linear_1_216" x1="52.99" y1="65.83" x2="58.68" y2="65.83" gradientUnits="userSpaceOnUse">
<stop stop-color="#363B39"/>
<stop offset="1" stop-color="#1B1C1C"/>
</linearGradient>
<linearGradient id="paint25_linear_1_216" x1="8.35999" y1="62.99" x2="4.56999" y2="70.32" gradientUnits="userSpaceOnUse">
<stop stop-color="#363B39"/>
<stop offset="1" stop-color="#1B1C1C"/>
</linearGradient>
<linearGradient id="paint26_linear_1_216" x1="7.41" y1="65.07" x2="1.71" y2="65.07" gradientUnits="userSpaceOnUse">
<stop stop-color="#F0A000"/>
<stop offset="0.1" stop-color="#F3AE0D"/>
<stop offset="0.29" stop-color="#F8C623"/>
<stop offset="0.49" stop-color="#FCD632"/>
<stop offset="0.72" stop-color="#FEE03C"/>
<stop offset="1" stop-color="#FFE43F"/>
</linearGradient>
<linearGradient id="paint27_linear_1_216" x1="7.44" y1="65.83" x2="1.74" y2="65.83" gradientUnits="userSpaceOnUse">
<stop stop-color="#363B39"/>
<stop offset="1" stop-color="#1B1C1C"/>
</linearGradient>
<linearGradient id="paint28_linear_1_216" x1="23.49" y1="109.24" x2="36.93" y2="109.24" gradientUnits="userSpaceOnUse">
<stop stop-color="#E6DAB8"/>
<stop offset="1" stop-color="#C7B37F"/>
</linearGradient>
<linearGradient id="paint29_linear_1_216" x1="23.22" y1="110.78" x2="37.2" y2="110.78" gradientUnits="userSpaceOnUse">
<stop stop-color="#E6DAB8"/>
<stop offset="1" stop-color="#C7B37F"/>
</linearGradient>
<linearGradient id="paint30_linear_1_216" x1="22.95" y1="112.32" x2="37.47" y2="112.32" gradientUnits="userSpaceOnUse">
<stop stop-color="#E6DAB8"/>
<stop offset="1" stop-color="#C7B37F"/>
</linearGradient>
<linearGradient id="paint31_linear_1_216" x1="22.69" y1="113.87" x2="37.73" y2="113.87" gradientUnits="userSpaceOnUse">
<stop stop-color="#E6DAB8"/>
<stop offset="1" stop-color="#C7B37F"/>
</linearGradient>
<clipPath id="clip0_1_216">
<rect width="64.79" height="120.71" fill="white"/>
</clipPath>
</defs>
</svg>
