<svg width="69" height="119" viewBox="0 0 69 119" fill="none" xmlns="http://www.w3.org/2000/svg">
<g clip-path="url(#clip0_1_148)">
<path style="mix-blend-mode:multiply" d="M49.17 116.07H29.15C17.82 116.07 8.52 107.38 8.52 96.8V17.15C8.52 7.82 17.09 0.890001 27.56 1.54L46.07 2.69C56.21 3.32 64.64 11.09 65.01 20.16L68.15 97.42C68.57 107.66 60.13 116.07 49.17 116.07Z" fill="url(#paint0_linear_1_148)"/>
<path d="M59.91 55.64C62.29 31.11 58.87 14.61 54.93 6.88C51 -0.840002 31.92 0.209998 31.92 0.209998C31.92 0.209998 12.84 -0.840002 8.91 6.88C4.97 14.6 1.55 34.27 3.93 55.64C5.22 67.26 1.96 94.03 1.56 104.91C1.16 115.79 18.56 116.85 18.56 116.85L19.77 118.6H44.06L45.27 116.85C45.27 116.85 62.68 115.8 62.27 104.91C61.87 94.03 58.77 67.28 59.9 55.64H59.91Z" fill="#B4B8B7"/>
<path d="M20.33 117.56L19.14 115.84L18.63 115.81C17.95 115.77 3.46 115.98 3.46 101.21C3.46 85.46 5.92 63.98 4.98 55.53C2.54 33.68 6.35 14.2 9.84 7.36C12.6 1.93 23.46 0 31.92 0C40.38 0 51.17 1.92 53.99 7.34C57.88 14.8 61.21 31.38 58.86 55.53C58.04 63.98 60.4 85.43 60.4 101.14C60.4 115.64 45.38 115.79 45.21 115.8L44.7 115.83L43.51 117.55H20.32L20.33 117.56Z" fill="url(#paint1_radial_1_148)"/>
<path style="mix-blend-mode:multiply" d="M54.19 9.89C54.52 9.89 54.84 9.91 55.17 9.92C54.79 8.97 54.4 8.1 54 7.34C51.17 1.92 40.34 0 31.92 0C23.5 0 12.6 1.93 9.84 7.36C9.78 7.47 9.73 7.59 9.67 7.7C24.51 8.38 39.32 9.84 54.18 9.89H54.19Z" fill="url(#paint2_linear_1_148)"/>
<path d="M20.32 1.7C20.32 1.7 12.8 2.45 10.91 5.82C9.02 9.2 10.2 10.55 10.2 10.55C10.2 10.55 17.35 8.51 20.32 1.7Z" fill="url(#paint3_linear_1_148)"/>
<path d="M10.82 9.69C10.82 9.12 10.57 7.49 11.34 6.13C12.34 4.35 16.05 2.94 18.42 2.45C17.25 6.85 12.52 8.99 10.82 9.69Z" fill="url(#paint4_linear_1_148)"/>
<path style="mix-blend-mode:screen" d="M13.75 6.9C13.75 7.09 13.39 7.25 12.94 7.25C12.49 7.25 12.13 7.09 12.13 6.9C12.13 6.71 12.49 6.55 12.94 6.55C13.39 6.55 13.75 6.71 13.75 6.9Z" fill="url(#paint5_linear_1_148)"/>
<path style="mix-blend-mode:screen" d="M13.89 7.66C13.89 7.97 13.3 8.23 12.58 8.23C11.86 8.23 11.27 7.97 11.27 7.66C11.27 7.35 11.86 7.09 12.58 7.09C13.3 7.09 13.89 7.35 13.89 7.66Z" fill="url(#paint6_linear_1_148)"/>
<path d="M43.52 1.7C43.52 1.7 51.03 2.45 52.93 5.82C54.83 9.19 53.64 10.55 53.64 10.55C53.64 10.55 46.49 8.51 43.52 1.7Z" fill="url(#paint7_linear_1_148)"/>
<path d="M53.02 9.69C53.02 9.12 53.27 7.49 52.5 6.13C51.5 4.35 47.79 2.94 45.42 2.45C46.59 6.85 51.32 8.99 53.02 9.69Z" fill="url(#paint8_linear_1_148)"/>
<path style="mix-blend-mode:screen" d="M50.09 6.9C50.09 7.09 50.45 7.25 50.9 7.25C51.35 7.25 51.71 7.09 51.71 6.9C51.71 6.71 51.35 6.55 50.9 6.55C50.45 6.55 50.09 6.71 50.09 6.9Z" fill="url(#paint9_linear_1_148)"/>
<path style="mix-blend-mode:screen" d="M49.95 7.66C49.95 7.97 50.54 8.23 51.26 8.23C51.98 8.23 52.57 7.97 52.57 7.66C52.57 7.35 51.98 7.09 51.26 7.09C50.54 7.09 49.95 7.35 49.95 7.66Z" fill="url(#paint10_linear_1_148)"/>
<path d="M41.5 28.01C41.5 38.98 37.21 47.88 31.92 47.88C26.63 47.88 22.34 38.98 22.34 28.01C22.34 17.04 29.03 5.82 31.92 5.82C34.81 5.82 41.5 17.03 41.5 28V28.01Z" fill="url(#paint11_linear_1_148)"/>
<path d="M46.07 14.62C45.26 14.3 44.57 14.79 44.57 15.58V17.01C44.57 18.45 45.68 20 46.97 20.66C49.51 21.97 51.75 23.83 53.64 26.12C53.84 24.85 54.08 21.33 51.42 18.41C49.46 16.25 47.41 15.15 46.07 14.62Z" fill="url(#paint12_linear_1_148)"/>
<path d="M53.22 24.84C51.44 22.89 49.43 21.33 47.21 20.19C46.02 19.58 45.1 18.18 45.1 17V15.57C45.1 15.24 45.29 15.03 45.58 15.03C45.67 15.03 45.77 15.05 45.88 15.09C47.19 15.61 49.15 16.67 51.04 18.74C52.94 20.83 53.27 23.24 53.23 24.83L53.22 24.84Z" fill="url(#paint13_linear_1_148)"/>
<path d="M49.7 22.36C49.34 22.1 48.98 21.85 48.61 21.61V15.97C48.97 16.21 49.33 16.48 49.7 16.78V22.35V22.36ZM46.46 20.34C46.62 20.46 46.79 20.56 46.96 20.65C47.16 20.75 47.36 20.87 47.55 20.98V15.33C47.16 15.11 46.79 14.93 46.46 14.79V20.35V20.34ZM50.75 23.19C51.12 23.51 51.49 23.84 51.84 24.18V18.91C51.71 18.74 51.56 18.57 51.41 18.4C51.19 18.16 50.97 17.93 50.75 17.72V23.2V23.19Z" fill="url(#paint14_linear_1_148)"/>
<path d="M17.78 14.62C18.59 14.3 19.28 14.79 19.28 15.58V17.01C19.28 18.45 18.17 20 16.88 20.66C14.34 21.97 12.1 23.83 10.22 26.12C10.02 24.85 9.78 21.33 12.44 18.41C14.4 16.25 16.45 15.15 17.79 14.62H17.78Z" fill="url(#paint15_linear_1_148)"/>
<path d="M10.62 24.84C12.4 22.89 14.41 21.33 16.63 20.19C17.82 19.58 18.74 18.18 18.74 17V15.57C18.74 15.24 18.55 15.03 18.26 15.03C18.17 15.03 18.07 15.05 17.96 15.09C16.65 15.61 14.69 16.67 12.8 18.74C10.9 20.83 10.57 23.24 10.61 24.83L10.62 24.84Z" fill="url(#paint16_linear_1_148)"/>
<path d="M14.14 16.79C14.51 16.49 14.88 16.21 15.23 15.98V21.62C14.86 21.86 14.49 22.11 14.14 22.37V16.8V16.79ZM17.38 14.79C17.05 14.94 16.68 15.12 16.29 15.33V20.98C16.49 20.87 16.68 20.76 16.88 20.65C17.05 20.56 17.22 20.46 17.38 20.34V14.78V14.79ZM13.09 17.73C12.87 17.95 12.65 18.17 12.43 18.41C12.28 18.58 12.13 18.75 12 18.92V24.19C12.36 23.85 12.72 23.52 13.09 23.2V17.72V17.73Z" fill="url(#paint17_linear_1_148)"/>
<path style="mix-blend-mode:screen" d="M43.47 110.37H20.37V113.48H43.47V110.37Z" fill="url(#paint18_linear_1_148)"/>
<path d="M54.12 62.73C55.84 58.75 54.57 54.24 54.57 49.46C54.57 33.26 45.67 20.14 31.92 20.14C18.17 20.14 9.27 33.27 9.27 49.46C9.27 54.24 8 58.75 9.72 62.73C10.87 65.38 14.53 75.02 17.42 75.02H46.41C49.3 75.02 52.97 65.39 54.11 62.73H54.12Z" fill="url(#paint19_linear_1_148)"/>
<path style="mix-blend-mode:screen" d="M31.92 21.18C30.2 21.18 28.54 21.41 26.96 21.84C31.12 27.16 33.79 33.68 34.31 40.72C36.85 41.1 39.27 41.88 41.49 43.02C44.36 40.41 47.86 38.47 51.7 37.51C48.45 27.61 41.11 21.19 31.92 21.19V21.18Z" fill="url(#paint20_linear_1_148)"/>
<path d="M17.43 69.79C16.35 69.79 14.81 61.37 14.52 60.94C13.85 59.7 14.04 57.88 14.25 55.77C14.37 54.57 14.5 53.34 14.5 52C14.5 42.42 20.48 32.73 31.92 32.73C43.36 32.73 49.34 42.43 49.34 52C49.34 53.34 49.47 54.57 49.59 55.77C49.81 57.88 49.99 59.7 49.32 60.95C49.04 61.37 47.5 69.79 46.42 69.79H17.43Z" fill="url(#paint21_linear_1_148)"/>
<path d="M36.81 75.02H27.03V78.38H36.81V75.02Z" fill="url(#paint22_linear_1_148)"/>
<path d="M27.03 78.37L25.98 97.55H27.92C28.99 97.55 29.53 96.43 29.25 95.01C28.72 92.26 28.3 88.02 30.23 86.14C30.84 85.55 33.01 85.55 33.62 86.14C35.55 88.03 35.13 92.26 34.6 95.01C34.33 96.43 34.86 97.55 35.93 97.55H37.87L36.82 78.37H27.04H27.03Z" fill="url(#paint23_linear_1_148)"/>
<path d="M26.76 118.6H25.19C25.19 108.48 27.12 105.05 27.2 104.91L28.56 105.69C28.56 105.69 26.76 109 26.76 118.6Z" fill="url(#paint24_linear_1_148)"/>
<path d="M38.65 118.6H37.08C37.08 109.01 35.3 105.73 35.28 105.69L36.64 104.91C36.72 105.05 38.65 108.48 38.65 118.6Z" fill="url(#paint25_linear_1_148)"/>
<path d="M33.11 82.86H30.73V101.18H33.11V82.86Z" fill="url(#paint26_linear_1_148)"/>
<path d="M37.86 103.13C37.86 104.77 35.2 106.1 31.92 106.1C28.64 106.1 25.98 104.77 25.98 103.13C25.98 101.49 28.64 100.16 31.92 100.16C35.2 100.16 37.86 101.49 37.86 103.13Z" fill="url(#paint27_linear_1_148)"/>
<path style="mix-blend-mode:multiply" d="M35.48 12.4H28.36V14.51H35.48V12.4Z" fill="url(#paint28_linear_1_148)"/>
<path style="mix-blend-mode:multiply" d="M36.11 20.14C36.11 21.51 34.23 22.62 31.92 22.62C29.61 22.62 27.73 21.51 27.73 20.14C27.73 18.77 29.61 17.66 31.92 17.66C34.23 17.66 36.11 18.77 36.11 20.14Z" fill="url(#paint29_linear_1_148)"/>
<path d="M9.31 50.04C9.31 50.04 7.15 50.47 7.1 52.31C7.05 54.16 9.26 57.9 9.31 55.53C9.36 53.16 9.51 50.75 9.31 50.03V50.04Z" fill="url(#paint30_linear_1_148)"/>
<path d="M1.48 54.07C1.52 52.9 7.11 51.41 7.27 51.81C8.49 51.79 8.64 52.7 8.52 53.33C5.88 53.05 3.45 53.79 1.65 55.1C1.48 54.85 1.31 54.49 1.48 54.07Z" fill="url(#paint31_linear_1_148)"/>
<path d="M8.64 53.34C8.58 53.76 8.43 54.1 8.43 54.11C5.95 53.76 3.61 54.33 1.8 55.49C1.8 55.49 1.65 55.36 1.5 55.15C3.38 53.8 5.91 53.05 8.64 53.34Z" fill="url(#paint32_linear_1_148)"/>
<path d="M54.54 50.04C54.54 50.04 56.7 50.47 56.75 52.31C56.8 54.16 54.59 57.9 54.54 55.53C54.49 53.16 54.34 50.75 54.54 50.03V50.04Z" fill="url(#paint33_linear_1_148)"/>
<path d="M62.37 54.07C62.33 52.9 56.74 51.41 56.58 51.81C55.36 51.79 55.21 52.7 55.33 53.33C57.97 53.05 60.4 53.79 62.2 55.1C62.37 54.85 62.54 54.49 62.37 54.07Z" fill="url(#paint34_linear_1_148)"/>
<path d="M55.2 53.34C55.26 53.76 55.41 54.1 55.41 54.11C57.89 53.76 60.22 54.33 62.04 55.49C62.04 55.49 62.19 55.36 62.34 55.15C60.46 53.8 57.93 53.05 55.2 53.34Z" fill="url(#paint35_linear_1_148)"/>
<g style="mix-blend-mode:screen">
<path d="M46.67 69.79H46.15V75.02H46.67V69.79Z" fill="url(#paint36_linear_1_148)"/>
</g>
<g style="mix-blend-mode:screen">
<path d="M17.77 69.79H17.25V75.02H17.77V69.79Z" fill="url(#paint37_linear_1_148)"/>
</g>
<path d="M17.15 12.26C17.88 12.2 18.25 11.79 18.98 11.73C19.04 11.73 19.09 11.68 19.09 11.62C19.09 11.56 19.04 11.51 18.98 11.52C18.25 11.58 17.88 11.99 17.15 12.05C17.09 12.05 17.04 12.1 17.04 12.16C17.04 12.22 17.09 12.27 17.15 12.26Z" fill="#9E9E9E"/>
<path d="M18.98 11.94C18.25 12 17.88 12.41 17.15 12.47C17.09 12.47 17.04 12.52 17.04 12.58C17.04 12.64 17.09 12.69 17.15 12.68C17.88 12.62 18.25 12.21 18.98 12.15C19.04 12.15 19.09 12.1 19.09 12.04C19.09 11.98 19.04 11.93 18.98 11.94Z" fill="#9E9E9E"/>
<path d="M18.98 12.37C18.25 12.43 17.88 12.84 17.15 12.9C17.09 12.9 17.04 12.95 17.04 13.01C17.04 13.07 17.09 13.12 17.15 13.11C17.88 13.05 18.25 12.64 18.98 12.58C19.04 12.58 19.09 12.53 19.09 12.47C19.09 12.41 19.04 12.36 18.98 12.37Z" fill="#9E9E9E"/>
<path d="M46.7 12.26C45.97 12.2 45.6 11.79 44.87 11.73C44.81 11.73 44.76 11.68 44.76 11.62C44.76 11.56 44.81 11.51 44.87 11.52C45.6 11.58 45.97 11.99 46.7 12.05C46.76 12.05 46.81 12.1 46.81 12.16C46.81 12.22 46.76 12.27 46.7 12.26Z" fill="#9E9E9E"/>
<path d="M44.86 11.94C45.59 12 45.96 12.41 46.69 12.47C46.75 12.47 46.8 12.52 46.8 12.58C46.8 12.64 46.75 12.69 46.69 12.68C45.96 12.62 45.59 12.21 44.86 12.15C44.8 12.15 44.75 12.1 44.75 12.04C44.75 11.98 44.8 11.93 44.86 11.94Z" fill="#9E9E9E"/>
<path d="M44.86 12.37C45.59 12.43 45.96 12.84 46.69 12.9C46.75 12.9 46.8 12.95 46.8 13.01C46.8 13.07 46.75 13.12 46.69 13.11C45.96 13.05 45.59 12.64 44.86 12.58C44.8 12.58 44.75 12.53 44.75 12.47C44.75 12.41 44.8 12.36 44.86 12.37Z" fill="#9E9E9E"/>
<path d="M52.84 97.55C52.84 97.55 50.4 104.67 50.43 109.16C50.43 109.16 54.53 106.4 54.99 105.31C55.45 104.22 52.84 101.85 52.84 97.56V97.55Z" fill="url(#paint38_linear_1_148)"/>
<path d="M50.99 108.14C51.16 105.5 51.99 102.23 52.61 100.07C52.95 101.51 53.51 102.67 53.94 103.53C54.25 104.16 54.6 104.88 54.51 105.11C54.28 105.66 52.52 107.05 50.99 108.14Z" fill="url(#paint39_linear_1_148)"/>
<path style="mix-blend-mode:screen" d="M51.51 104.5H54.38C54.47 104.73 54.52 104.91 54.51 105.04H51.4C51.43 104.86 51.47 104.68 51.51 104.5ZM51.62 103.97H54.15C54.08 103.82 54.01 103.67 53.94 103.53C53.93 103.5 53.91 103.47 53.9 103.44H51.75C51.71 103.62 51.67 103.79 51.63 103.97H51.62ZM51.31 105.56C51.28 105.74 51.25 105.92 51.22 106.1H53.61C53.83 105.91 54.02 105.72 54.17 105.56H51.32H51.31ZM51.99 102.37C51.95 102.55 51.9 102.72 51.86 102.91H53.63C53.55 102.74 53.47 102.56 53.39 102.37H51.99ZM52.3 107.16C52.53 106.98 52.76 106.8 52.98 106.62H51.15C51.13 106.8 51.1 106.98 51.08 107.16H52.31H52.3Z" fill="url(#paint40_linear_1_148)"/>
<path d="M11 97.55C11 97.55 13.44 104.67 13.41 109.16C13.41 109.16 9.31 106.4 8.85 105.31C8.39 104.22 11 101.85 11 97.56V97.55Z" fill="url(#paint41_linear_1_148)"/>
<path d="M12.85 108.14C12.68 105.5 11.85 102.23 11.23 100.07C10.89 101.51 10.33 102.67 9.9 103.53C9.59 104.16 9.24 104.88 9.33 105.11C9.56 105.66 11.32 107.05 12.85 108.14Z" fill="url(#paint42_linear_1_148)"/>
<path style="mix-blend-mode:screen" d="M12.44 105.03H9.33C9.33 104.91 9.37 104.72 9.46 104.49H12.33C12.37 104.67 12.4 104.85 12.44 105.03ZM12.1 103.43H9.95C9.95 103.43 9.92 103.5 9.9 103.52C9.83 103.66 9.76 103.81 9.69 103.96H12.22C12.18 103.78 12.14 103.6 12.1 103.43ZM9.68 105.56C9.83 105.72 10.02 105.9 10.24 106.1H12.63C12.6 105.92 12.57 105.74 12.54 105.56H9.69H9.68ZM10.45 102.37C10.37 102.55 10.29 102.74 10.21 102.91H11.98C11.94 102.73 11.89 102.55 11.85 102.37H10.45ZM12.77 107.16C12.75 106.98 12.72 106.8 12.7 106.62H10.87C11.08 106.79 11.31 106.97 11.55 107.16H12.78H12.77Z" fill="url(#paint43_linear_1_148)"/>
</g>
<defs>
<linearGradient id="paint0_linear_1_148" x1="31.66" y1="58.78" x2="69.44" y2="58.78" gradientUnits="userSpaceOnUse">
<stop stop-color="#242424"/>
<stop offset="1" stop-color="white"/>
</linearGradient>
<radialGradient id="paint1_radial_1_148" cx="0" cy="0" r="1" gradientUnits="userSpaceOnUse" gradientTransform="translate(31.93 58.78) scale(60.69)">
<stop offset="0.47" stop-color="white"/>
<stop offset="0.62" stop-color="#FCFCFB"/>
<stop offset="0.73" stop-color="#F2F2F1"/>
<stop offset="0.84" stop-color="#E3E2E1"/>
<stop offset="0.94" stop-color="#CDCCC9"/>
<stop offset="1" stop-color="#BBBAB6"/>
</radialGradient>
<linearGradient id="paint2_linear_1_148" x1="32.42" y1="-0.05" x2="32.42" y2="9.58" gradientUnits="userSpaceOnUse">
<stop stop-color="#D9D8D3"/>
<stop offset="0.14" stop-color="#E6E5E2"/>
<stop offset="0.37" stop-color="#F8F8F7"/>
<stop offset="0.53" stop-color="white"/>
</linearGradient>
<linearGradient id="paint3_linear_1_148" x1="12.57" y1="8.97" x2="19.16" y2="-2.07" gradientUnits="userSpaceOnUse">
<stop stop-color="#9C9C9C"/>
<stop offset="1" stop-color="#1B1C1C"/>
</linearGradient>
<linearGradient id="paint4_linear_1_148" x1="14.41" y1="9.31" x2="14.83" y2="0.670001" gradientUnits="userSpaceOnUse">
<stop stop-color="white"/>
<stop offset="1"/>
</linearGradient>
<linearGradient id="paint5_linear_1_148" x1="12.79" y1="7.16" x2="13.32" y2="6.28" gradientUnits="userSpaceOnUse">
<stop stop-color="#9C9C9C"/>
<stop offset="1" stop-color="#1B1C1C"/>
</linearGradient>
<linearGradient id="paint6_linear_1_148" x1="12.32" y1="8.09" x2="13.18" y2="6.65" gradientUnits="userSpaceOnUse">
<stop stop-color="#9C9C9C"/>
<stop offset="1" stop-color="#1B1C1C"/>
</linearGradient>
<linearGradient id="paint7_linear_1_148" x1="51.27" y1="8.97" x2="44.68" y2="-2.07" gradientUnits="userSpaceOnUse">
<stop stop-color="#9C9C9C"/>
<stop offset="1" stop-color="#1B1C1C"/>
</linearGradient>
<linearGradient id="paint8_linear_1_148" x1="49.43" y1="9.31" x2="49.01" y2="0.670001" gradientUnits="userSpaceOnUse">
<stop stop-color="white"/>
<stop offset="1"/>
</linearGradient>
<linearGradient id="paint9_linear_1_148" x1="51.05" y1="7.16" x2="50.53" y2="6.28" gradientUnits="userSpaceOnUse">
<stop stop-color="#9C9C9C"/>
<stop offset="1" stop-color="#1B1C1C"/>
</linearGradient>
<linearGradient id="paint10_linear_1_148" x1="51.52" y1="8.09" x2="50.66" y2="6.65" gradientUnits="userSpaceOnUse">
<stop stop-color="#9C9C9C"/>
<stop offset="1" stop-color="#1B1C1C"/>
</linearGradient>
<linearGradient id="paint11_linear_1_148" x1="26.69" y1="36.9" x2="45.78" y2="4.92" gradientUnits="userSpaceOnUse">
<stop stop-color="#9C9C9C"/>
<stop offset="1" stop-color="#1B1C1C"/>
</linearGradient>
<linearGradient id="paint12_linear_1_148" x1="49.16" y1="16.47" x2="49.16" y2="23.94" gradientUnits="userSpaceOnUse">
<stop stop-color="#9C9C9C"/>
<stop offset="0.01" stop-color="#969696"/>
<stop offset="0.08" stop-color="#757575"/>
<stop offset="0.16" stop-color="#595959"/>
<stop offset="0.24" stop-color="#424242"/>
<stop offset="0.34" stop-color="#303131"/>
<stop offset="0.46" stop-color="#242525"/>
<stop offset="0.62" stop-color="#1D1E1E"/>
<stop offset="1" stop-color="#1B1C1C"/>
</linearGradient>
<linearGradient id="paint13_linear_1_148" x1="49.16" y1="16.69" x2="49.16" y2="23" gradientUnits="userSpaceOnUse">
<stop stop-color="#1B1C1C"/>
<stop offset="0.27" stop-color="#1D1E1E"/>
<stop offset="0.44" stop-color="#262727"/>
<stop offset="0.58" stop-color="#343535"/>
<stop offset="0.71" stop-color="#494A4A"/>
<stop offset="0.83" stop-color="#646464"/>
<stop offset="0.94" stop-color="#848585"/>
<stop offset="1" stop-color="#9C9C9C"/>
</linearGradient>
<linearGradient id="paint14_linear_1_148" x1="49.5" y1="18.45" x2="47.74" y2="23.75" gradientUnits="userSpaceOnUse">
<stop stop-color="#9C9C9C"/>
<stop offset="0.04" stop-color="#8F8F8F"/>
<stop offset="0.17" stop-color="#6B6C6C"/>
<stop offset="0.3" stop-color="#4E4F4F"/>
<stop offset="0.44" stop-color="#373838"/>
<stop offset="0.6" stop-color="#272828"/>
<stop offset="0.77" stop-color="#1E1E1E"/>
<stop offset="1" stop-color="#1B1C1C"/>
</linearGradient>
<linearGradient id="paint15_linear_1_148" x1="14.69" y1="16.47" x2="14.69" y2="23.94" gradientUnits="userSpaceOnUse">
<stop stop-color="#9C9C9C"/>
<stop offset="0.01" stop-color="#969696"/>
<stop offset="0.08" stop-color="#757575"/>
<stop offset="0.16" stop-color="#595959"/>
<stop offset="0.24" stop-color="#424242"/>
<stop offset="0.34" stop-color="#303131"/>
<stop offset="0.46" stop-color="#242525"/>
<stop offset="0.62" stop-color="#1D1E1E"/>
<stop offset="1" stop-color="#1B1C1C"/>
</linearGradient>
<linearGradient id="paint16_linear_1_148" x1="14.68" y1="16.69" x2="14.68" y2="23" gradientUnits="userSpaceOnUse">
<stop stop-color="#1B1C1C"/>
<stop offset="0.27" stop-color="#1D1E1E"/>
<stop offset="0.44" stop-color="#262727"/>
<stop offset="0.58" stop-color="#343535"/>
<stop offset="0.71" stop-color="#494A4A"/>
<stop offset="0.83" stop-color="#646464"/>
<stop offset="0.94" stop-color="#848585"/>
<stop offset="1" stop-color="#9C9C9C"/>
</linearGradient>
<linearGradient id="paint17_linear_1_148" x1="13.6" y1="17.86" x2="16.29" y2="21.9" gradientUnits="userSpaceOnUse">
<stop stop-color="#9C9C9C"/>
<stop offset="0.26" stop-color="#737373"/>
<stop offset="0.59" stop-color="#434444"/>
<stop offset="0.85" stop-color="#262727"/>
<stop offset="1" stop-color="#1B1C1C"/>
</linearGradient>
<linearGradient id="paint18_linear_1_148" x1="31.92" y1="110.37" x2="31.92" y2="113.42" gradientUnits="userSpaceOnUse">
<stop offset="0.25"/>
<stop offset="0.37" stop-color="#161616"/>
<stop offset="0.59" stop-color="#3B3B3B"/>
<stop offset="0.7" stop-color="#4A4A4A"/>
<stop offset="1"/>
</linearGradient>
<linearGradient id="paint19_linear_1_148" x1="23.51" y1="65.43" x2="53.21" y2="15.67" gradientUnits="userSpaceOnUse">
<stop/>
<stop offset="1" stop-color="#1B1C1C"/>
</linearGradient>
<linearGradient id="paint20_linear_1_148" x1="39.81" y1="27.07" x2="38.15" y2="36.2" gradientUnits="userSpaceOnUse">
<stop stop-color="#363B39"/>
<stop offset="1"/>
</linearGradient>
<linearGradient id="paint21_linear_1_148" x1="15.43" y1="51.25" x2="48.48" y2="51.25" gradientUnits="userSpaceOnUse">
<stop stop-color="#DBDBDB"/>
<stop offset="1" stop-color="white"/>
</linearGradient>
<linearGradient id="paint22_linear_1_148" x1="30.71" y1="78.72" x2="34.78" y2="71.9" gradientUnits="userSpaceOnUse">
<stop/>
<stop offset="1" stop-color="#1B1C1C"/>
</linearGradient>
<linearGradient id="paint23_linear_1_148" x1="28.79" y1="94.08" x2="40.15" y2="75.06" gradientUnits="userSpaceOnUse">
<stop stop-color="#363B39"/>
<stop offset="1" stop-color="#1B1C1C"/>
</linearGradient>
<linearGradient id="paint24_linear_1_148" x1="25.19" y1="111.76" x2="28.56" y2="111.76" gradientUnits="userSpaceOnUse">
<stop stop-color="#363B39"/>
<stop offset="1" stop-color="#1B1C1C"/>
</linearGradient>
<linearGradient id="paint25_linear_1_148" x1="38.64" y1="111.76" x2="35.28" y2="111.76" gradientUnits="userSpaceOnUse">
<stop stop-color="#363B39"/>
<stop offset="1" stop-color="#1B1C1C"/>
</linearGradient>
<linearGradient id="paint26_linear_1_148" x1="29.32" y1="96.37" x2="38.06" y2="81.73" gradientUnits="userSpaceOnUse">
<stop stop-color="#363B39"/>
<stop offset="1" stop-color="#1B1C1C"/>
</linearGradient>
<linearGradient id="paint27_linear_1_148" x1="30.7" y1="105.17" x2="34.8" y2="98.31" gradientUnits="userSpaceOnUse">
<stop stop-color="#363B39"/>
<stop offset="1" stop-color="#1B1C1C"/>
</linearGradient>
<linearGradient id="paint28_linear_1_148" x1="31.92" y1="12.76" x2="31.92" y2="14.12" gradientUnits="userSpaceOnUse">
<stop stop-color="#1B1C1C"/>
<stop offset="0.19" stop-color="#4F5050"/>
<stop offset="0.48" stop-color="#9A9A9A"/>
<stop offset="0.72" stop-color="#D0D0D0"/>
<stop offset="0.9" stop-color="#F2F2F2"/>
<stop offset="1" stop-color="white"/>
</linearGradient>
<linearGradient id="paint29_linear_1_148" x1="31.92" y1="18.49" x2="31.92" y2="21.68" gradientUnits="userSpaceOnUse">
<stop stop-color="#1B1C1C"/>
<stop offset="0.19" stop-color="#4F5050"/>
<stop offset="0.48" stop-color="#9A9A9A"/>
<stop offset="0.72" stop-color="#D0D0D0"/>
<stop offset="0.9" stop-color="#F2F2F2"/>
<stop offset="1" stop-color="white"/>
</linearGradient>
<linearGradient id="paint30_linear_1_148" x1="9.8" y1="50.79" x2="5.02" y2="60.05" gradientUnits="userSpaceOnUse">
<stop stop-color="#363B39"/>
<stop offset="1" stop-color="#1B1C1C"/>
</linearGradient>
<linearGradient id="paint31_linear_1_148" x1="8.6" y1="53.42" x2="1.4" y2="53.42" gradientUnits="userSpaceOnUse">
<stop stop-color="white"/>
<stop offset="1" stop-color="#D2D6D5"/>
</linearGradient>
<linearGradient id="paint32_linear_1_148" x1="8.64" y1="54.38" x2="1.44" y2="54.38" gradientUnits="userSpaceOnUse">
<stop stop-color="#363B39"/>
<stop offset="1" stop-color="#1B1C1C"/>
</linearGradient>
<linearGradient id="paint33_linear_1_148" x1="54.03" y1="50.79" x2="58.82" y2="60.05" gradientUnits="userSpaceOnUse">
<stop stop-color="#363B39"/>
<stop offset="1" stop-color="#1B1C1C"/>
</linearGradient>
<linearGradient id="paint34_linear_1_148" x1="55.24" y1="4.4828e-05" x2="62.44" y2="4.4828e-05" gradientUnits="userSpaceOnUse">
<stop stop-color="white"/>
<stop offset="1" stop-color="#D2D6D5"/>
</linearGradient>
<linearGradient id="paint35_linear_1_148" x1="55.2" y1="54.38" x2="62.39" y2="54.38" gradientUnits="userSpaceOnUse">
<stop stop-color="#363B39"/>
<stop offset="1" stop-color="#1B1C1C"/>
</linearGradient>
<linearGradient id="paint36_linear_1_148" x1="46.15" y1="72.4" x2="46.68" y2="72.4" gradientUnits="userSpaceOnUse">
<stop stop-color="#808080"/>
<stop offset="0.16" stop-color="#717171"/>
<stop offset="0.47" stop-color="#4B4B4B"/>
<stop offset="0.9" stop-color="#0F0F0F"/>
<stop offset="1"/>
</linearGradient>
<linearGradient id="paint37_linear_1_148" x1="17.25" y1="6.25068e-05" x2="17.77" y2="6.25068e-05" gradientUnits="userSpaceOnUse">
<stop stop-color="#808080"/>
<stop offset="0.16" stop-color="#717171"/>
<stop offset="0.47" stop-color="#4B4B4B"/>
<stop offset="0.9" stop-color="#0F0F0F"/>
<stop offset="1"/>
</linearGradient>
<linearGradient id="paint38_linear_1_148" x1="53.84" y1="100.2" x2="52.99" y2="104.91" gradientUnits="userSpaceOnUse">
<stop stop-color="#363B39"/>
<stop offset="1"/>
</linearGradient>
<linearGradient id="paint39_linear_1_148" x1="52.76" y1="100.4" x2="52.76" y2="108.13" gradientUnits="userSpaceOnUse">
<stop stop-color="#1B1C1C"/>
<stop offset="0.27" stop-color="#1D1E1E"/>
<stop offset="0.44" stop-color="#262727"/>
<stop offset="0.58" stop-color="#343535"/>
<stop offset="0.71" stop-color="#494A4A"/>
<stop offset="0.83" stop-color="#646464"/>
<stop offset="0.94" stop-color="#848585"/>
<stop offset="1" stop-color="#9C9C9C"/>
</linearGradient>
<linearGradient id="paint40_linear_1_148" x1="52.8" y1="102.57" x2="52.8" y2="107.16" gradientUnits="userSpaceOnUse">
<stop stop-color="#1B1C1C"/>
<stop offset="0.27" stop-color="#1D1E1E"/>
<stop offset="0.44" stop-color="#262727"/>
<stop offset="0.58" stop-color="#343535"/>
<stop offset="0.71" stop-color="#494A4A"/>
<stop offset="0.83" stop-color="#646464"/>
<stop offset="0.94" stop-color="#848585"/>
<stop offset="1" stop-color="#9C9C9C"/>
</linearGradient>
<linearGradient id="paint41_linear_1_148" x1="10" y1="100.2" x2="10.85" y2="104.91" gradientUnits="userSpaceOnUse">
<stop stop-color="#363B39"/>
<stop offset="1"/>
</linearGradient>
<linearGradient id="paint42_linear_1_148" x1="11.08" y1="100.4" x2="11.08" y2="108.13" gradientUnits="userSpaceOnUse">
<stop stop-color="#1B1C1C"/>
<stop offset="0.27" stop-color="#1D1E1E"/>
<stop offset="0.44" stop-color="#262727"/>
<stop offset="0.58" stop-color="#343535"/>
<stop offset="0.71" stop-color="#494A4A"/>
<stop offset="0.83" stop-color="#646464"/>
<stop offset="0.94" stop-color="#848585"/>
<stop offset="1" stop-color="#9C9C9C"/>
</linearGradient>
<linearGradient id="paint43_linear_1_148" x1="11.04" y1="102.57" x2="11.04" y2="107.16" gradientUnits="userSpaceOnUse">
<stop stop-color="#1B1C1C"/>
<stop offset="0.27" stop-color="#1D1E1E"/>
<stop offset="0.44" stop-color="#262727"/>
<stop offset="0.58" stop-color="#343535"/>
<stop offset="0.71" stop-color="#494A4A"/>
<stop offset="0.83" stop-color="#646464"/>
<stop offset="0.94" stop-color="#848585"/>
<stop offset="1" stop-color="#9C9C9C"/>
</linearGradient>
<clipPath id="clip0_1_148">
<rect width="68.16" height="118.6" fill="white"/>
</clipPath>
</defs>
</svg>
